<svg viewBox="0 0 40 40" xmlns="http://www.w3.org/2000/svg">
  <path d="M28 26.8c.5.4.5 1 0 1.4 0 .2-.4.3-.6.3s-.5 0-.7-.3L20 21.4l-7 6.8c0 .2-.4.3-.6.3s-.5 0-.7-.3c-.4-.4-.4-1 0-1.4l6.8-6.8-6.8-6.8c-.4-.4-.4-1 0-1.4.4-.4 1-.4 1.4 0l7 6.8 6.7-6.8c.4-.4 1-.4 1.4 0 .5.4.5 1 0 1.4L21.4 20l6.8 6.8z"/>
  <path d="M20 40C9 40 0 31 0 20S9 0 20 0c4.4 0 8.6 1.5 12.2 4.2.4.3.5 1 .2 1.4-.3.4-1 .5-1.4.2C27.8 3.3 24 2 20 2 10 2 2 10 2 20s8 18 18 18 18-8 18-18c0-3.2-1-6.4-2.5-9.2-.3-.5 0-1 .3-1.4.5-.3 1 0 1.4.3C39 12.7 40 16.3 40 20c0 11-9 20-20 20z"/>
</svg>
