<svg viewBox="0 0 40 40" xmlns="http://www.w3.org/2000/svg">
  <path d="M20 40C9 40 0 31 0 20S9 0 20 0c4.5 0 8.7 1.5 12.3 4.2.4.3.5 1 .2 1.4-.3.4-1 .5-1.4.2C28 3.3 24 2 20 2 10 2 2 10 2 20s8 18 18 18 18-8 18-18c0-3.2-1-6.4-2.5-9.2-.3-.5 0-1 .3-1.4.5-.3 1 0 1.4.3C39 13 40 16.4 40 20c0 11-9 20-20 20z"/>
  <path d="M30.5 20c0 .6-.4 1-1 1-.5 0-1-.4-1-1 0-4.7-3.8-8.6-8.5-8.6s-8.5 3.8-8.5 8.6c0 4.7 3.8 8.6 8.5 8.6L18.3 27c-.4-.5-.4-1 0-1.5.4-.4 1-.4 1.4 0l3 3 .3.2.2.2c.2 0 .3.3.3.6s0 .5-.3.7l-3.4 3.4-.8.3s-.5 0-.7-.3c-.4-.4-.4-1 0-1.4l1.7-1.7C14.2 30.6 9.5 26 9.5 20S14.2 9.4 20 9.4 30.5 14.2 30.5 20z"/>
</svg>
